# xmcd CD database file
#
# Track frame offsets:
#	150
#	17468
#	36496
#	53926
#	71936
#	94998
#	114743
#	137383
#	158611
#	177628
#	198435
#
# Disc length: 2851 seconds
#
# Revision: 1
# Processed by: cddbd v1.5.2PL0 Copyright (c) Steve Scherf et al.
# Submitted via: CDex 1.51
#
DISCID=9c0b210b
DTITLE=Various Artist - BachataRengue 2006
DYEAR=2006
DGENRE=Merengue
TTITLE0=Elvis Crespo - Pan Comio
TTITLE1=Allendy - Te mal informaron mi amor
TTITLE2=Ricky Castro - Cotorinto
TTITLE3=Kiko Rodriguez - Dulce mujer de mi vida
TTITLE4=Amarfis y La Banda Atakke - Va a seguir
TTITLE5=Benny Sadel - Tu me vas a dejar
TTITLE6=Zacarias Ferreiras - Siento que te quiero
TTITLE7=Richie Banda X - Pa' lante
TTITLE8=Elvis Crespo - Hora enamorada
TTITLE9=Amarfis y La Banda Atakke - Mi chelito
TTITLE10=Kiko Rodriguez - Bandida
EXTD=YEAR: 2006
EXTT0=
EXTT1=
EXTT2=
EXTT3=
EXTT4=
EXTT5=
EXTT6=
EXTT7=
EXTT8=
EXTT9=
EXTT10=
PLAYORDER=
